<svg xmlns="http://www.w3.org/2000/svg" viewBox="0 0 1024 1024" width="1024" height="1024" shape-rendering="crispEdges"><rect x="0" y="0" width="1024" height="32" fill="#3a2010"/><rect x="0" y="32" width="64" height="32" fill="#3a2010"/><rect x="64" y="32" width="896" height="32" fill="#c98b4b"/><rect x="960" y="32" width="64" height="32" fill="#3a2010"/><rect x="0" y="64" width="32" height="32" fill="#3a2010"/><rect x="32" y="64" width="32" height="32" fill="#c98b4b"/><rect x="64" y="64" width="896" height="32" fill="#8b5a2b"/><rect x="960" y="64" width="32" height="32" fill="#6b4226"/><rect x="992" y="64" width="32" height="32" fill="#3a2010"/><rect x="0" y="96" width="32" height="32" fill="#3a2010"/><rect x="32" y="96" width="32" height="32" fill="#c98b4b"/><rect x="64" y="96" width="32" height="32" fill="#8b5a2b"/><rect x="96" y="96" width="832" height="32" fill="#e8cf9f"/><rect x="928" y="96" width="32" height="32" fill="#8b5a2b"/><rect x="960" y="96" width="32" height="32" fill="#6b4226"/><rect x="992" y="96" width="32" height="32" fill="#3a2010"/><rect x="0" y="128" width="32" height="32" fill="#3a2010"/><rect x="32" y="128" width="32" height="32" fill="#c98b4b"/><rect x="64" y="128" width="32" height="32" fill="#8b5a2b"/><rect x="96" y="128" width="32" height="32" fill="#e8cf9f"/><rect x="128" y="128" width="224" height="32" fill="#f5e3c0"/><rect x="352" y="128" width="320" height="32" fill="#4a2717"/><rect x="672" y="128" width="256" height="32" fill="#f5e3c0"/><rect x="928" y="128" width="32" height="32" fill="#8b5a2b"/><rect x="960" y="128" width="32" height="32" fill="#6b4226"/><rect x="992" y="128" width="32" height="32" fill="#3a2010"/><rect x="0" y="160" width="32" height="32" fill="#3a2010"/><rect x="32" y="160" width="32" height="32" fill="#c98b4b"/><rect x="64" y="160" width="32" height="32" fill="#8b5a2b"/><rect x="96" y="160" width="32" height="32" fill="#e8cf9f"/><rect x="128" y="160" width="192" height="32" fill="#f5e3c0"/><rect x="320" y="160" width="32" height="32" fill="#4a2717"/><rect x="352" y="160" width="320" height="32" fill="#fbe08a"/><rect x="672" y="160" width="32" height="32" fill="#4a2717"/><rect x="704" y="160" width="224" height="32" fill="#f5e3c0"/><rect x="928" y="160" width="32" height="32" fill="#8b5a2b"/><rect x="960" y="160" width="32" height="32" fill="#6b4226"/><rect x="992" y="160" width="32" height="32" fill="#3a2010"/><rect x="0" y="192" width="32" height="32" fill="#3a2010"/><rect x="32" y="192" width="32" height="32" fill="#c98b4b"/><rect x="64" y="192" width="32" height="32" fill="#8b5a2b"/><rect x="96" y="192" width="32" height="32" fill="#e8cf9f"/><rect x="128" y="192" width="128" height="32" fill="#f5e3c0"/><rect x="256" y="192" width="64" height="32" fill="#4a2717"/><rect x="320" y="192" width="64" height="32" fill="#fbe08a"/><rect x="384" y="192" width="32" height="32" fill="#ffffff"/><rect x="416" y="192" width="192" height="32" fill="#f3c33a"/><rect x="608" y="192" width="96" height="32" fill="#fbe08a"/><rect x="704" y="192" width="64" height="32" fill="#4a2717"/><rect x="768" y="192" width="160" height="32" fill="#f5e3c0"/><rect x="928" y="192" width="32" height="32" fill="#8b5a2b"/><rect x="960" y="192" width="32" height="32" fill="#6b4226"/><rect x="992" y="192" width="32" height="32" fill="#3a2010"/><rect x="0" y="224" width="32" height="32" fill="#3a2010"/><rect x="32" y="224" width="32" height="32" fill="#c98b4b"/><rect x="64" y="224" width="32" height="32" fill="#8b5a2b"/><rect x="96" y="224" width="32" height="32" fill="#e8cf9f"/><rect x="128" y="224" width="96" height="32" fill="#f5e3c0"/><rect x="224" y="224" width="32" height="32" fill="#4a2717"/><rect x="256" y="224" width="96" height="32" fill="#fbe08a"/><rect x="352" y="224" width="320" height="32" fill="#f3c33a"/><rect x="672" y="224" width="32" height="32" fill="#fbe08a"/><rect x="704" y="224" width="64" height="32" fill="#f3c33a"/><rect x="768" y="224" width="32" height="32" fill="#4a2717"/><rect x="800" y="224" width="128" height="32" fill="#f5e3c0"/><rect x="928" y="224" width="32" height="32" fill="#8b5a2b"/><rect x="960" y="224" width="32" height="32" fill="#6b4226"/><rect x="992" y="224" width="32" height="32" fill="#3a2010"/><rect x="0" y="256" width="32" height="32" fill="#3a2010"/><rect x="32" y="256" width="32" height="32" fill="#c98b4b"/><rect x="64" y="256" width="32" height="32" fill="#8b5a2b"/><rect x="96" y="256" width="32" height="32" fill="#e8cf9f"/><rect x="128" y="256" width="64" height="32" fill="#f5e3c0"/><rect x="192" y="256" width="32" height="32" fill="#4a2717"/><rect x="224" y="256" width="96" height="32" fill="#fbe08a"/><rect x="320" y="256" width="96" height="32" fill="#f3c33a"/><rect x="416" y="256" width="32" height="32" fill="#8a5c10"/><rect x="448" y="256" width="96" height="32" fill="#f3c33a"/><rect x="544" y="256" width="32" height="32" fill="#8a5c10"/><rect x="576" y="256" width="224" height="32" fill="#f3c33a"/><rect x="800" y="256" width="32" height="32" fill="#4a2717"/><rect x="832" y="256" width="96" height="32" fill="#f5e3c0"/><rect x="928" y="256" width="32" height="32" fill="#8b5a2b"/><rect x="960" y="256" width="32" height="32" fill="#6b4226"/><rect x="992" y="256" width="32" height="32" fill="#3a2010"/><rect x="0" y="288" width="32" height="32" fill="#3a2010"/><rect x="32" y="288" width="32" height="32" fill="#c98b4b"/><rect x="64" y="288" width="32" height="32" fill="#8b5a2b"/><rect x="96" y="288" width="32" height="32" fill="#e8cf9f"/><rect x="128" y="288" width="64" height="32" fill="#f5e3c0"/><rect x="192" y="288" width="32" height="32" fill="#4a2717"/><rect x="224" y="288" width="64" height="32" fill="#fbe08a"/><rect x="288" y="288" width="96" height="32" fill="#f3c33a"/><rect x="384" y="288" width="32" height="32" fill="#8a5c10"/><rect x="416" y="288" width="32" height="32" fill="#7ab317"/><rect x="448" y="288" width="32" height="32" fill="#8a5c10"/><rect x="480" y="288" width="32" height="32" fill="#f3c33a"/><rect x="512" y="288" width="32" height="32" fill="#8a5c10"/><rect x="544" y="288" width="32" height="32" fill="#7ab317"/><rect x="576" y="288" width="32" height="32" fill="#8a5c10"/><rect x="608" y="288" width="192" height="32" fill="#f3c33a"/><rect x="800" y="288" width="32" height="32" fill="#4a2717"/><rect x="832" y="288" width="96" height="32" fill="#f5e3c0"/><rect x="928" y="288" width="32" height="32" fill="#8b5a2b"/><rect x="960" y="288" width="32" height="32" fill="#6b4226"/><rect x="992" y="288" width="32" height="32" fill="#3a2010"/><rect x="0" y="320" width="32" height="32" fill="#3a2010"/><rect x="32" y="320" width="32" height="32" fill="#c98b4b"/><rect x="64" y="320" width="32" height="32" fill="#8b5a2b"/><rect x="96" y="320" width="32" height="32" fill="#e8cf9f"/><rect x="128" y="320" width="32" height="32" fill="#f5e3c0"/><rect x="160" y="320" width="32" height="32" fill="#4a2717"/><rect x="192" y="320" width="64" height="32" fill="#fbe08a"/><rect x="256" y="320" width="128" height="32" fill="#f3c33a"/><rect x="384" y="320" width="32" height="32" fill="#8a5c10"/><rect x="416" y="320" width="64" height="32" fill="#7ab317"/><rect x="480" y="320" width="32" height="32" fill="#8a5c10"/><rect x="512" y="320" width="96" height="32" fill="#7ab317"/><rect x="608" y="320" width="32" height="32" fill="#8a5c10"/><rect x="640" y="320" width="128" height="32" fill="#f3c33a"/><rect x="768" y="320" width="64" height="32" fill="#c98a1e"/><rect x="832" y="320" width="32" height="32" fill="#4a2717"/><rect x="864" y="320" width="64" height="32" fill="#f5e3c0"/><rect x="928" y="320" width="32" height="32" fill="#8b5a2b"/><rect x="960" y="320" width="32" height="32" fill="#6b4226"/><rect x="992" y="320" width="32" height="32" fill="#3a2010"/><rect x="0" y="352" width="32" height="32" fill="#3a2010"/><rect x="32" y="352" width="32" height="32" fill="#c98b4b"/><rect x="64" y="352" width="32" height="32" fill="#8b5a2b"/><rect x="96" y="352" width="32" height="32" fill="#e8cf9f"/><rect x="128" y="352" width="32" height="32" fill="#4a2717"/><rect x="160" y="352" width="64" height="32" fill="#fbe08a"/><rect x="224" y="352" width="64" height="32" fill="#f3c33a"/><rect x="288" y="352" width="64" height="32" fill="#ffffff"/><rect x="352" y="352" width="64" height="32" fill="#f3c33a"/><rect x="416" y="352" width="32" height="32" fill="#8a5c10"/><rect x="448" y="352" width="160" height="32" fill="#7ab317"/><rect x="608" y="352" width="32" height="32" fill="#8a5c10"/><rect x="640" y="352" width="160" height="32" fill="#f3c33a"/><rect x="800" y="352" width="64" height="32" fill="#c98a1e"/><rect x="864" y="352" width="32" height="32" fill="#4a2717"/><rect x="896" y="352" width="32" height="32" fill="#f5e3c0"/><rect x="928" y="352" width="32" height="32" fill="#8b5a2b"/><rect x="960" y="352" width="32" height="32" fill="#6b4226"/><rect x="992" y="352" width="32" height="32" fill="#3a2010"/><rect x="0" y="384" width="32" height="32" fill="#3a2010"/><rect x="32" y="384" width="32" height="32" fill="#c98b4b"/><rect x="64" y="384" width="32" height="32" fill="#8b5a2b"/><rect x="96" y="384" width="32" height="32" fill="#e8cf9f"/><rect x="128" y="384" width="32" height="32" fill="#4a2717"/><rect x="160" y="384" width="64" height="32" fill="#fbe08a"/><rect x="224" y="384" width="64" height="32" fill="#f3c33a"/><rect x="288" y="384" width="32" height="32" fill="#ffffff"/><rect x="320" y="384" width="96" height="32" fill="#f3c33a"/><rect x="416" y="384" width="32" height="32" fill="#8a5c10"/><rect x="448" y="384" width="128" height="32" fill="#7ab317"/><rect x="576" y="384" width="32" height="32" fill="#8a5c10"/><rect x="608" y="384" width="192" height="32" fill="#f3c33a"/><rect x="800" y="384" width="64" height="32" fill="#c98a1e"/><rect x="864" y="384" width="32" height="32" fill="#4a2717"/><rect x="896" y="384" width="32" height="32" fill="#f5e3c0"/><rect x="928" y="384" width="32" height="32" fill="#8b5a2b"/><rect x="960" y="384" width="32" height="32" fill="#6b4226"/><rect x="992" y="384" width="32" height="32" fill="#3a2010"/><rect x="0" y="416" width="32" height="32" fill="#3a2010"/><rect x="32" y="416" width="32" height="32" fill="#c98b4b"/><rect x="64" y="416" width="32" height="32" fill="#8b5a2b"/><rect x="96" y="416" width="32" height="32" fill="#e8cf9f"/><rect x="128" y="416" width="32" height="32" fill="#4a2717"/><rect x="160" y="416" width="32" height="32" fill="#fbe08a"/><rect x="192" y="416" width="256" height="32" fill="#f3c33a"/><rect x="448" y="416" width="128" height="32" fill="#8a5c10"/><rect x="576" y="416" width="256" height="32" fill="#f3c33a"/><rect x="832" y="416" width="32" height="32" fill="#c98a1e"/><rect x="864" y="416" width="32" height="32" fill="#4a2717"/><rect x="896" y="416" width="32" height="32" fill="#f5e3c0"/><rect x="928" y="416" width="32" height="32" fill="#8b5a2b"/><rect x="960" y="416" width="32" height="32" fill="#6b4226"/><rect x="992" y="416" width="32" height="32" fill="#3a2010"/><rect x="0" y="448" width="32" height="32" fill="#3a2010"/><rect x="32" y="448" width="32" height="32" fill="#c98b4b"/><rect x="64" y="448" width="32" height="32" fill="#8b5a2b"/><rect x="96" y="448" width="32" height="32" fill="#e8cf9f"/><rect x="128" y="448" width="32" height="32" fill="#4a2717"/><rect x="160" y="448" width="32" height="32" fill="#fbe08a"/><rect x="192" y="448" width="256" height="32" fill="#f3c33a"/><rect x="448" y="448" width="32" height="32" fill="#8a5c10"/><rect x="480" y="448" width="96" height="32" fill="#fbeeca"/><rect x="576" y="448" width="32" height="32" fill="#8a5c10"/><rect x="608" y="448" width="224" height="32" fill="#f3c33a"/><rect x="832" y="448" width="32" height="32" fill="#c98a1e"/><rect x="864" y="448" width="32" height="32" fill="#4a2717"/><rect x="896" y="448" width="32" height="32" fill="#f5e3c0"/><rect x="928" y="448" width="32" height="32" fill="#8b5a2b"/><rect x="960" y="448" width="32" height="32" fill="#6b4226"/><rect x="992" y="448" width="32" height="32" fill="#3a2010"/><rect x="0" y="480" width="32" height="32" fill="#3a2010"/><rect x="32" y="480" width="32" height="32" fill="#c98b4b"/><rect x="64" y="480" width="32" height="32" fill="#8b5a2b"/><rect x="96" y="480" width="32" height="32" fill="#e8cf9f"/><rect x="128" y="480" width="32" height="32" fill="#4a2717"/><rect x="160" y="480" width="32" height="32" fill="#fbe08a"/><rect x="192" y="480" width="256" height="32" fill="#f3c33a"/><rect x="448" y="480" width="32" height="32" fill="#8a5c10"/><rect x="480" y="480" width="96" height="32" fill="#fbeeca"/><rect x="576" y="480" width="32" height="32" fill="#8a5c10"/><rect x="608" y="480" width="224" height="32" fill="#f3c33a"/><rect x="832" y="480" width="32" height="32" fill="#c98a1e"/><rect x="864" y="480" width="32" height="32" fill="#4a2717"/><rect x="896" y="480" width="32" height="32" fill="#f5e3c0"/><rect x="928" y="480" width="32" height="32" fill="#8b5a2b"/><rect x="960" y="480" width="32" height="32" fill="#6b4226"/><rect x="992" y="480" width="32" height="32" fill="#3a2010"/><rect x="0" y="512" width="32" height="32" fill="#3a2010"/><rect x="32" y="512" width="32" height="32" fill="#c98b4b"/><rect x="64" y="512" width="32" height="32" fill="#8b5a2b"/><rect x="96" y="512" width="32" height="32" fill="#e8cf9f"/><rect x="128" y="512" width="32" height="32" fill="#4a2717"/><rect x="160" y="512" width="32" height="32" fill="#fbe08a"/><rect x="192" y="512" width="224" height="32" fill="#f3c33a"/><rect x="416" y="512" width="32" height="32" fill="#8a5c10"/><rect x="448" y="512" width="128" height="32" fill="#fbeeca"/><rect x="576" y="512" width="32" height="32" fill="#8a5c10"/><rect x="608" y="512" width="224" height="32" fill="#f3c33a"/><rect x="832" y="512" width="32" height="32" fill="#c98a1e"/><rect x="864" y="512" width="32" height="32" fill="#4a2717"/><rect x="896" y="512" width="32" height="32" fill="#f5e3c0"/><rect x="928" y="512" width="32" height="32" fill="#8b5a2b"/><rect x="960" y="512" width="32" height="32" fill="#6b4226"/><rect x="992" y="512" width="32" height="32" fill="#3a2010"/><rect x="0" y="544" width="32" height="32" fill="#3a2010"/><rect x="32" y="544" width="32" height="32" fill="#c98b4b"/><rect x="64" y="544" width="32" height="32" fill="#8b5a2b"/><rect x="96" y="544" width="32" height="32" fill="#e8cf9f"/><rect x="128" y="544" width="32" height="32" fill="#4a2717"/><rect x="160" y="544" width="32" height="32" fill="#fbe08a"/><rect x="192" y="544" width="224" height="32" fill="#f3c33a"/><rect x="416" y="544" width="32" height="32" fill="#8a5c10"/><rect x="448" y="544" width="96" height="32" fill="#fbeeca"/><rect x="544" y="544" width="32" height="32" fill="#8a5c10"/><rect x="576" y="544" width="256" height="32" fill="#f3c33a"/><rect x="832" y="544" width="32" height="32" fill="#c98a1e"/><rect x="864" y="544" width="32" height="32" fill="#4a2717"/><rect x="896" y="544" width="32" height="32" fill="#f5e3c0"/><rect x="928" y="544" width="32" height="32" fill="#8b5a2b"/><rect x="960" y="544" width="32" height="32" fill="#6b4226"/><rect x="992" y="544" width="32" height="32" fill="#3a2010"/><rect x="0" y="576" width="32" height="32" fill="#3a2010"/><rect x="32" y="576" width="32" height="32" fill="#c98b4b"/><rect x="64" y="576" width="32" height="32" fill="#8b5a2b"/><rect x="96" y="576" width="32" height="32" fill="#e8cf9f"/><rect x="128" y="576" width="32" height="32" fill="#4a2717"/><rect x="160" y="576" width="32" height="32" fill="#fbe08a"/><rect x="192" y="576" width="192" height="32" fill="#f3c33a"/><rect x="384" y="576" width="32" height="32" fill="#8a5c10"/><rect x="416" y="576" width="128" height="32" fill="#fbeeca"/><rect x="544" y="576" width="32" height="32" fill="#8a5c10"/><rect x="576" y="576" width="256" height="32" fill="#f3c33a"/><rect x="832" y="576" width="32" height="32" fill="#c98a1e"/><rect x="864" y="576" width="32" height="32" fill="#4a2717"/><rect x="896" y="576" width="32" height="32" fill="#f5e3c0"/><rect x="928" y="576" width="32" height="32" fill="#8b5a2b"/><rect x="960" y="576" width="32" height="32" fill="#6b4226"/><rect x="992" y="576" width="32" height="32" fill="#3a2010"/><rect x="0" y="608" width="32" height="32" fill="#3a2010"/><rect x="32" y="608" width="32" height="32" fill="#c98b4b"/><rect x="64" y="608" width="32" height="32" fill="#8b5a2b"/><rect x="96" y="608" width="32" height="32" fill="#e8cf9f"/><rect x="128" y="608" width="32" height="32" fill="#4a2717"/><rect x="160" y="608" width="64" height="32" fill="#fbe08a"/><rect x="224" y="608" width="160" height="32" fill="#f3c33a"/><rect x="384" y="608" width="32" height="32" fill="#8a5c10"/><rect x="416" y="608" width="96" height="32" fill="#fbeeca"/><rect x="512" y="608" width="32" height="32" fill="#8a5c10"/><rect x="544" y="608" width="256" height="32" fill="#f3c33a"/><rect x="800" y="608" width="64" height="32" fill="#c98a1e"/><rect x="864" y="608" width="32" height="32" fill="#4a2717"/><rect x="896" y="608" width="32" height="32" fill="#f5e3c0"/><rect x="928" y="608" width="32" height="32" fill="#8b5a2b"/><rect x="960" y="608" width="32" height="32" fill="#6b4226"/><rect x="992" y="608" width="32" height="32" fill="#3a2010"/><rect x="0" y="640" width="32" height="32" fill="#3a2010"/><rect x="32" y="640" width="32" height="32" fill="#c98b4b"/><rect x="64" y="640" width="32" height="32" fill="#8b5a2b"/><rect x="96" y="640" width="32" height="32" fill="#e8cf9f"/><rect x="128" y="640" width="32" height="32" fill="#4a2717"/><rect x="160" y="640" width="64" height="32" fill="#fbe08a"/><rect x="224" y="640" width="160" height="32" fill="#f3c33a"/><rect x="384" y="640" width="32" height="32" fill="#8a5c10"/><rect x="416" y="640" width="64" height="32" fill="#fbeeca"/><rect x="480" y="640" width="32" height="32" fill="#8a5c10"/><rect x="512" y="640" width="288" height="32" fill="#f3c33a"/><rect x="800" y="640" width="64" height="32" fill="#c98a1e"/><rect x="864" y="640" width="32" height="32" fill="#4a2717"/><rect x="896" y="640" width="32" height="32" fill="#f5e3c0"/><rect x="928" y="640" width="32" height="32" fill="#8b5a2b"/><rect x="960" y="640" width="32" height="32" fill="#6b4226"/><rect x="992" y="640" width="32" height="32" fill="#3a2010"/><rect x="0" y="672" width="32" height="32" fill="#3a2010"/><rect x="32" y="672" width="32" height="32" fill="#c98b4b"/><rect x="64" y="672" width="32" height="32" fill="#8b5a2b"/><rect x="96" y="672" width="32" height="32" fill="#e8cf9f"/><rect x="128" y="672" width="32" height="32" fill="#f5e3c0"/><rect x="160" y="672" width="32" height="32" fill="#4a2717"/><rect x="192" y="672" width="64" height="32" fill="#fbe08a"/><rect x="256" y="672" width="96" height="32" fill="#f3c33a"/><rect x="352" y="672" width="32" height="32" fill="#8a5c10"/><rect x="384" y="672" width="64" height="32" fill="#fbeeca"/><rect x="448" y="672" width="32" height="32" fill="#8a5c10"/><rect x="480" y="672" width="288" height="32" fill="#f3c33a"/><rect x="768" y="672" width="64" height="32" fill="#c98a1e"/><rect x="832" y="672" width="32" height="32" fill="#4a2717"/><rect x="864" y="672" width="64" height="32" fill="#f5e3c0"/><rect x="928" y="672" width="32" height="32" fill="#8b5a2b"/><rect x="960" y="672" width="32" height="32" fill="#6b4226"/><rect x="992" y="672" width="32" height="32" fill="#3a2010"/><rect x="0" y="704" width="32" height="32" fill="#3a2010"/><rect x="32" y="704" width="32" height="32" fill="#c98b4b"/><rect x="64" y="704" width="32" height="32" fill="#8b5a2b"/><rect x="96" y="704" width="32" height="32" fill="#e8cf9f"/><rect x="128" y="704" width="64" height="32" fill="#f5e3c0"/><rect x="192" y="704" width="32" height="32" fill="#4a2717"/><rect x="224" y="704" width="128" height="32" fill="#f3c33a"/><rect x="352" y="704" width="32" height="32" fill="#8a5c10"/><rect x="384" y="704" width="32" height="32" fill="#fbeeca"/><rect x="416" y="704" width="32" height="32" fill="#8a5c10"/><rect x="448" y="704" width="288" height="32" fill="#f3c33a"/><rect x="736" y="704" width="32" height="32" fill="#c98a1e"/><rect x="768" y="704" width="32" height="32" fill="#ffffff"/><rect x="800" y="704" width="32" height="32" fill="#4a2717"/><rect x="832" y="704" width="96" height="32" fill="#f5e3c0"/><rect x="928" y="704" width="32" height="32" fill="#8b5a2b"/><rect x="960" y="704" width="32" height="32" fill="#6b4226"/><rect x="992" y="704" width="32" height="32" fill="#3a2010"/><rect x="0" y="736" width="32" height="32" fill="#3a2010"/><rect x="32" y="736" width="32" height="32" fill="#c98b4b"/><rect x="64" y="736" width="32" height="32" fill="#8b5a2b"/><rect x="96" y="736" width="32" height="32" fill="#e8cf9f"/><rect x="128" y="736" width="64" height="32" fill="#f5e3c0"/><rect x="192" y="736" width="32" height="32" fill="#4a2717"/><rect x="224" y="736" width="128" height="32" fill="#f3c33a"/><rect x="352" y="736" width="64" height="32" fill="#8a5c10"/><rect x="416" y="736" width="288" height="32" fill="#f3c33a"/><rect x="704" y="736" width="96" height="32" fill="#c98a1e"/><rect x="800" y="736" width="32" height="32" fill="#4a2717"/><rect x="832" y="736" width="96" height="32" fill="#f5e3c0"/><rect x="928" y="736" width="32" height="32" fill="#8b5a2b"/><rect x="960" y="736" width="32" height="32" fill="#6b4226"/><rect x="992" y="736" width="32" height="32" fill="#3a2010"/><rect x="0" y="768" width="32" height="32" fill="#3a2010"/><rect x="32" y="768" width="32" height="32" fill="#c98b4b"/><rect x="64" y="768" width="32" height="32" fill="#8b5a2b"/><rect x="96" y="768" width="32" height="32" fill="#e8cf9f"/><rect x="128" y="768" width="96" height="32" fill="#f5e3c0"/><rect x="224" y="768" width="32" height="32" fill="#4a2717"/><rect x="256" y="768" width="64" height="32" fill="#f3c33a"/><rect x="320" y="768" width="32" height="32" fill="#c98a1e"/><rect x="352" y="768" width="320" height="32" fill="#f3c33a"/><rect x="672" y="768" width="96" height="32" fill="#c98a1e"/><rect x="768" y="768" width="32" height="32" fill="#4a2717"/><rect x="800" y="768" width="128" height="32" fill="#f5e3c0"/><rect x="928" y="768" width="32" height="32" fill="#8b5a2b"/><rect x="960" y="768" width="32" height="32" fill="#6b4226"/><rect x="992" y="768" width="32" height="32" fill="#3a2010"/><rect x="0" y="800" width="32" height="32" fill="#3a2010"/><rect x="32" y="800" width="32" height="32" fill="#c98b4b"/><rect x="64" y="800" width="32" height="32" fill="#8b5a2b"/><rect x="96" y="800" width="32" height="32" fill="#e8cf9f"/><rect x="128" y="800" width="128" height="32" fill="#f5e3c0"/><rect x="256" y="800" width="64" height="32" fill="#4a2717"/><rect x="320" y="800" width="96" height="32" fill="#c98a1e"/><rect x="416" y="800" width="192" height="32" fill="#f3c33a"/><rect x="608" y="800" width="96" height="32" fill="#c98a1e"/><rect x="704" y="800" width="64" height="32" fill="#4a2717"/><rect x="768" y="800" width="160" height="32" fill="#f5e3c0"/><rect x="928" y="800" width="32" height="32" fill="#8b5a2b"/><rect x="960" y="800" width="32" height="32" fill="#6b4226"/><rect x="992" y="800" width="32" height="32" fill="#3a2010"/><rect x="0" y="832" width="32" height="32" fill="#3a2010"/><rect x="32" y="832" width="32" height="32" fill="#c98b4b"/><rect x="64" y="832" width="32" height="32" fill="#8b5a2b"/><rect x="96" y="832" width="32" height="32" fill="#e8cf9f"/><rect x="128" y="832" width="192" height="32" fill="#f5e3c0"/><rect x="320" y="832" width="32" height="32" fill="#4a2717"/><rect x="352" y="832" width="320" height="32" fill="#c98a1e"/><rect x="672" y="832" width="32" height="32" fill="#4a2717"/><rect x="704" y="832" width="224" height="32" fill="#f5e3c0"/><rect x="928" y="832" width="32" height="32" fill="#8b5a2b"/><rect x="960" y="832" width="32" height="32" fill="#6b4226"/><rect x="992" y="832" width="32" height="32" fill="#3a2010"/><rect x="0" y="864" width="32" height="32" fill="#3a2010"/><rect x="32" y="864" width="32" height="32" fill="#c98b4b"/><rect x="64" y="864" width="32" height="32" fill="#8b5a2b"/><rect x="96" y="864" width="32" height="32" fill="#e8cf9f"/><rect x="128" y="864" width="224" height="32" fill="#f5e3c0"/><rect x="352" y="864" width="320" height="32" fill="#4a2717"/><rect x="672" y="864" width="256" height="32" fill="#f5e3c0"/><rect x="928" y="864" width="32" height="32" fill="#8b5a2b"/><rect x="960" y="864" width="32" height="32" fill="#6b4226"/><rect x="992" y="864" width="32" height="32" fill="#3a2010"/><rect x="0" y="896" width="32" height="32" fill="#3a2010"/><rect x="32" y="896" width="32" height="32" fill="#c98b4b"/><rect x="64" y="896" width="32" height="32" fill="#8b5a2b"/><rect x="96" y="896" width="32" height="32" fill="#e8cf9f"/><rect x="128" y="896" width="800" height="32" fill="#f5e3c0"/><rect x="928" y="896" width="32" height="32" fill="#8b5a2b"/><rect x="960" y="896" width="32" height="32" fill="#6b4226"/><rect x="992" y="896" width="32" height="32" fill="#3a2010"/><rect x="0" y="928" width="32" height="32" fill="#3a2010"/><rect x="32" y="928" width="32" height="32" fill="#c98b4b"/><rect x="64" y="928" width="896" height="32" fill="#8b5a2b"/><rect x="960" y="928" width="32" height="32" fill="#6b4226"/><rect x="992" y="928" width="32" height="32" fill="#3a2010"/><rect x="0" y="960" width="64" height="32" fill="#3a2010"/><rect x="64" y="960" width="896" height="32" fill="#6b4226"/><rect x="960" y="960" width="64" height="32" fill="#3a2010"/><rect x="0" y="992" width="1024" height="32" fill="#3a2010"/></svg>